<svg xmlns="http://www.w3.org/2000/svg" width="250" height="40" viewBox="0 0 250 40" role="img" aria-label="Open NUGABOX">
  <rect width="250" height="40" rx="6" fill="#24292f"/>

  <g transform="translate(12,8)" stroke="#ffffff" stroke-width="2" stroke-linecap="round" stroke-linejoin="round" fill="none">
    <path d="M21 8a2 2 0 0 0-1-1.73l-7-4a2 2 0 0 0-2 0l-7 4A2 2 0 0 0 3 8v8a2 2 0 0 0 1 1.73l7 4a2 2 0 0 0 2 0l7-4A2 2 0 0 0 21 16Z"/>
    <path d="m3.3 7 8.7 5 8.7-5"/>
    <path d="M12 22V12"/>
  </g>

  <text
    x="48"
    y="26"
    fill="#ffffff"
    font-family="-apple-system,BlinkMacSystemFont,'Segoe UI',Helvetica,Arial,sans-serif"
    font-size="14"
    font-weight="600">
    Open NUGABOX
  </text>
</svg>
