<svg xmlns="http://www.w3.org/2000/svg" width="88" height="22" viewBox="0 0 88 22" role="img" aria-label="linkedin">
  <rect x="0.5" y="0.5" width="87" height="21" rx="11" fill="none" stroke="#C5C5C5" stroke-width="1" stroke-dasharray="3 2"/>
  <g transform="translate(9 5.5)" fill="#C5C5C5">
    <path d="M0 .72C0 .32.33 0 .73 0h8.53c.4 0 .73.32.73.72v8.57c0 .4-.33.72-.73.72H.73A.73.73 0 0 1 0 9.28zm3.09 7.65V3.86H1.59v4.51zm-.75-5.13c.52 0 .85-.35.85-.78-.01-.44-.33-.78-.84-.78s-.86.33-.86.77c0 .43.33.78.83.78zm3.07 5.13V5.85c0-.14.01-.27.05-.37.11-.27.36-.55.77-.55.54 0 .76.41.76 1.02v2.42h1.5V5.78c0-1.39-.74-2.03-1.73-2.03-.8 0-1.15.44-1.35.75v.02h-.01l.01-.02V3.86H3.84c.02.42 0 4.51 0 4.51z"/>
  </g>
  <text x="28" y="14.5" fill="#C5C5C5" font-family="ui-monospace,SFMono-Regular,Menlo,Monaco,Consolas,monospace" font-size="11">linkedin</text>
</svg>
