<svg xmlns="http://www.w3.org/2000/svg" width="112" height="22" viewBox="0 0 112 22" role="img" aria-label="rocketpunch">
  <rect x="0.5" y="0.5" width="111" height="21" rx="11" fill="none" stroke="#C5C5C5" stroke-width="1" stroke-dasharray="3 2"/>
  <g transform="translate(8 5)" fill="none" stroke="#C5C5C5" stroke-width="1.5" stroke-linecap="round" stroke-linejoin="round">
    <path d="M6 7.5v2.5s1.5-.28 2-1c.54-.81 0-2.5 0-2.5"/>
    <path d="M2.25 8.25c-.75.63-1 2.5-1 2.5s1.87-.25 2.5-1c.36-.42.35-1.07-.05-1.46a1.09 1.09 0 0 0-1.45-.04"/>
    <path d="M4.5 6a11 11 0 0 1 1-1.98A6.44 6.44 0 0 1 11 1c0 1.36-.39 3.75-3 5.5a11.2 11.2 0 0 1-2 1z"/>
    <path d="M4.5 6H2s.28-1.52 1-2c.81-.54 2.5.03 2.5.03"/>
  </g>
  <text x="28" y="14.5" fill="#C5C5C5" font-family="ui-monospace,SFMono-Regular,Menlo,Monaco,Consolas,monospace" font-size="11">rocketpunch</text>
</svg>
